<svg width="148" height="149" fill="none" xmlns="http://www.w3.org/2000/svg"><g filter="url(#filter0_d_11_50)"><circle cx="74" cy="60.253" r="30" fill="#F53838"/><circle cx="74" cy="60.253" r="29" stroke="#F53838" stroke-width="2"/></g><path d="M65.25 59.003h14.825l-4.538-5.45a1.251 1.251 0 111.925-1.6l6.25 7.5c.042.06.08.122.113.187 0 .063 0 .1.087.163.057.143.087.296.088.45a1.25 1.25 0 01-.088.45c0 .062 0 .1-.087.162a1.48 1.48 0 01-.112.188l-6.25 7.5a1.25 1.25 0 01-.963.45 1.25 1.25 0 01-.963-2.05l4.538-5.45H65.25a1.25 1.25 0 010-2.5z" fill="#fff"/><defs><filter id="filter0_d_11_50" x="0" y=".253" width="148" height="148" filterUnits="userSpaceOnUse" color-interpolation-filters="sRGB"><feFlood flood-opacity="0" result="BackgroundImageFix"/><feColorMatrix in="SourceAlpha" values="0 0 0 0 0 0 0 0 0 0 0 0 0 0 0 0 0 0 127 0" result="hardAlpha"/><feOffset dy="14"/><feGaussianBlur stdDeviation="22"/><feColorMatrix values="0 0 0 0 0.0561111 0 0 0 0 0.0777333 0 0 0 0 0.133333 0 0 0 0.08 0"/><feBlend in2="BackgroundImageFix" result="effect1_dropShadow_11_50"/><feBlend in="SourceGraphic" in2="effect1_dropShadow_11_50" result="shape"/></filter></defs></svg>